<svg width="18" height="18" viewBox="0 0 18 18" fill="none" xmlns="http://www.w3.org/2000/svg">
<path fill-rule="evenodd" clip-rule="evenodd" d="M4.75808 9.96337C4.32333 10.3981 4.0791 10.9877 4.0791 11.6026C4.0791 12.2173 4.32333 12.807 4.75808 13.2418C5.19282 13.6765 5.78246 13.9207 6.39728 13.9207C6.70171 13.9207 7.00316 13.8607 7.28441 13.7443C7.56569 13.6278 7.82121 13.457 8.03646 13.2418L9.33824 11.94C9.63111 11.6471 10.1059 11.6471 10.3989 11.94C10.6918 12.2329 10.6918 12.7078 10.3989 13.0007L9.09711 14.3024C8.74259 14.6569 8.32169 14.9382 7.85841 15.13C7.39519 15.322 6.89869 15.4207 6.39728 15.4207C5.38463 15.4207 4.41347 15.0184 3.69742 14.3024C2.98137 13.5863 2.5791 12.6152 2.5791 11.6026C2.5791 10.5899 2.98137 9.61875 3.69742 8.90265L4.99913 7.60095C5.29203 7.30807 5.7669 7.30806 6.0598 7.60095C6.35269 7.89382 6.35269 8.36872 6.0598 8.6616L4.75808 9.96337Z" fill="#212121"/>
<path fill-rule="evenodd" clip-rule="evenodd" d="M13.2433 8.03483C13.6781 7.60005 13.9223 7.01043 13.9223 6.39561C13.9223 5.78079 13.6781 5.19114 13.2433 4.75641C12.8086 4.32166 12.2189 4.07742 11.6041 4.07742C11.2997 4.07742 10.9982 4.13739 10.717 4.25388C10.4357 4.37038 10.1802 4.54114 9.9649 4.7564L8.6632 6.05812C8.37032 6.35101 7.89542 6.35101 7.60255 6.05812C7.30965 5.76523 7.30965 5.29035 7.60255 4.99746L8.90425 3.69574C9.25885 3.34119 9.67975 3.05994 10.1429 2.86806C10.6062 2.67618 11.1027 2.57742 11.6041 2.57742C12.6167 2.57742 13.5879 2.97969 14.304 3.69574C15.02 4.41179 15.4223 5.38296 15.4223 6.39561C15.4223 7.40825 15.02 8.37945 14.304 9.09548L13.0022 10.3972C12.7094 10.6901 12.2345 10.6901 11.9416 10.3972C11.6487 10.1043 11.6487 9.6294 11.9416 9.33653L13.2433 8.03483Z" fill="#212121"/>
<path fill-rule="evenodd" clip-rule="evenodd" d="M6.73487 11.2649C6.44198 10.972 6.44198 10.4971 6.73487 10.2043L10.2061 6.73301C10.499 6.44011 10.9739 6.44011 11.2667 6.73301C11.5597 7.0259 11.5597 7.50074 11.2667 7.79369L7.79552 11.2649C7.50265 11.5578 7.02776 11.5578 6.73487 11.2649Z" fill="#212121"/>
</svg>
