<svg width="18" height="18" viewBox="0 0 18 18" fill="none" xmlns="http://www.w3.org/2000/svg">
<path fill-rule="evenodd" clip-rule="evenodd" d="M9 9C9.02486 9 9.04871 8.99012 9.06629 8.97254C9.08387 8.95496 9.09375 8.93111 9.09375 8.90625C9.09375 8.88139 9.08387 8.85754 9.06629 8.83996C9.04871 8.82238 9.02486 8.8125 9 8.8125C8.97514 8.8125 8.95129 8.82238 8.93371 8.83996C8.91613 8.85754 8.90625 8.88139 8.90625 8.90625C8.90625 8.93111 8.91613 8.95496 8.93371 8.97254C8.95129 8.99012 8.97514 9 9 9ZM7.59375 8.90625C7.59375 8.72158 7.63012 8.53872 7.70079 8.3681C7.77147 8.19749 7.87505 8.04246 8.00563 7.91188C8.13621 7.7813 8.29124 7.67772 8.46185 7.60704C8.63247 7.53637 8.81533 7.5 9 7.5C9.18467 7.5 9.36753 7.53637 9.53815 7.60704C9.70876 7.67772 9.86379 7.7813 9.99437 7.91188C10.125 8.04246 10.2285 8.19749 10.2992 8.3681C10.3699 8.53872 10.4062 8.72158 10.4062 8.90625C10.4062 9.27921 10.2581 9.6369 9.99437 9.90062C9.73065 10.1643 9.37296 10.3125 9 10.3125C8.62704 10.3125 8.26935 10.1643 8.00563 9.90062C7.74191 9.6369 7.59375 9.27921 7.59375 8.90625ZM13.5938 9C13.6186 9 13.6425 8.99012 13.66 8.97254C13.6776 8.95496 13.6875 8.93111 13.6875 8.90625C13.6875 8.88139 13.6776 8.85754 13.66 8.83996C13.6425 8.82238 13.6186 8.8125 13.5938 8.8125C13.5689 8.8125 13.545 8.82238 13.5275 8.83996C13.5099 8.85754 13.5 8.88139 13.5 8.90625C13.5 8.93111 13.5099 8.95496 13.5275 8.97254C13.545 8.99012 13.5689 9 13.5938 9ZM12.1875 8.90625C12.1875 8.53329 12.3357 8.1756 12.5994 7.91188C12.8631 7.64816 13.2208 7.5 13.5938 7.5C13.9667 7.5 14.3244 7.64816 14.5881 7.91188C14.8518 8.1756 15 8.53329 15 8.90625C15 9.27921 14.8518 9.6369 14.5881 9.90062C14.3244 10.1643 13.9667 10.3125 13.5938 10.3125C13.2208 10.3125 12.8631 10.1643 12.5994 9.90062C12.3357 9.6369 12.1875 9.27921 12.1875 8.90625ZM4.40625 9C4.43111 9 4.45496 8.99012 4.47254 8.97254C4.49012 8.95496 4.5 8.93111 4.5 8.90625C4.5 8.88139 4.49012 8.85754 4.47254 8.83996C4.45496 8.82238 4.43111 8.8125 4.40625 8.8125C4.38139 8.8125 4.35754 8.82238 4.33996 8.83996C4.32238 8.85754 4.3125 8.88139 4.3125 8.90625C4.3125 8.93111 4.32238 8.95496 4.33996 8.97254C4.35754 8.99012 4.38139 9 4.40625 9ZM3 8.90625C3 8.72158 3.03637 8.53872 3.10704 8.3681C3.17772 8.19749 3.2813 8.04246 3.41188 7.91188C3.54246 7.7813 3.69749 7.67772 3.8681 7.60704C4.03872 7.53637 4.22158 7.5 4.40625 7.5C4.59092 7.5 4.77378 7.53637 4.9444 7.60704C5.11501 7.67772 5.27004 7.7813 5.40062 7.91188C5.5312 8.04246 5.63478 8.19749 5.70546 8.3681C5.77613 8.53872 5.8125 8.72158 5.8125 8.90625C5.8125 9.27921 5.66434 9.6369 5.40062 9.90062C5.1369 10.1643 4.77921 10.3125 4.40625 10.3125C4.03329 10.3125 3.6756 10.1643 3.41188 9.90062C3.14816 9.6369 3 9.27921 3 8.90625Z" fill="#212121"/>
</svg>
