<svg width="16" height="16" viewBox="0 0 16 16" fill="none" xmlns="http://www.w3.org/2000/svg">
<path fill-rule="evenodd" clip-rule="evenodd" d="M2.76264 7.69732C3.13028 8.31725 3.56343 8.8959 4.05464 9.42332C5.02131 10.4533 6.35731 11.3933 7.99997 11.3933C9.64264 11.3933 10.9786 10.4533 11.9453 9.42199C12.4365 8.89479 12.8696 8.31636 13.2373 7.69666C12.8697 7.07671 12.4365 6.49806 11.9453 5.97066C10.9786 4.93999 9.64264 3.99999 7.99997 3.99999C6.35731 3.99999 5.02131 4.93999 4.05464 5.97132C3.56345 6.49852 3.1303 7.07762 2.76264 7.69732ZM14 7.69732L14.596 7.39866L14.5953 7.39666L14.5933 7.39199L14.5866 7.37999C14.553 7.31322 14.5174 7.24741 14.48 7.18266C14.0433 6.41691 13.5194 5.70438 12.9186 5.05932C11.8386 3.90866 10.1746 2.66666 7.99997 2.66666C5.82531 2.66666 4.15997 3.90866 3.08197 5.05932C2.48094 5.70431 1.95676 6.41685 1.51997 7.18266C1.48334 7.24785 1.44778 7.31363 1.41331 7.37999L1.40664 7.39199L1.40464 7.39666V7.39799C1.40464 7.39799 1.40397 7.39866 1.99997 7.69732L1.40397 7.39866C1.35763 7.49128 1.3335 7.59342 1.3335 7.69699C1.3335 7.80056 1.35763 7.9027 1.40397 7.99532V7.99599L1.40464 7.99732L1.40664 8.00132L1.41331 8.01466C1.44729 8.08105 1.48286 8.14663 1.51997 8.21132C1.95676 8.97713 2.48094 9.68967 3.08197 10.3347C4.15997 11.4853 5.82464 12.7273 7.99997 12.7273C10.1753 12.7273 11.84 11.4853 12.918 10.3347C13.519 9.68964 14.0431 8.97711 14.48 8.21132C14.5166 8.14613 14.5522 8.08034 14.5866 8.01399L14.5933 8.00132L14.5953 7.99732V7.99599C14.5953 7.99599 14.596 7.99532 14 7.69732ZM14 7.69732L14.596 7.99532C14.69 7.80732 14.6893 7.58599 14.596 7.39866L14 7.69732Z" fill="#6C6685"/>
<path fill-rule="evenodd" clip-rule="evenodd" d="M7.99999 6.72667C7.74273 6.72667 7.49601 6.82887 7.3141 7.01078C7.13218 7.19269 7.02999 7.43941 7.02999 7.69667C7.02999 7.95393 7.13218 8.20066 7.3141 8.38257C7.49601 8.56448 7.74273 8.66667 7.99999 8.66667C8.25725 8.66667 8.50397 8.56448 8.68588 8.38257C8.86779 8.20066 8.96999 7.95393 8.96999 7.69667C8.96999 7.43941 8.86779 7.19269 8.68588 7.01078C8.50397 6.82887 8.25725 6.72667 7.99999 6.72667ZM5.69732 7.69667C5.69212 7.39094 5.74784 7.08724 5.86125 6.80327C5.97465 6.5193 6.14345 6.26075 6.35782 6.0427C6.57219 5.82465 6.82783 5.65147 7.10983 5.53326C7.39183 5.41504 7.69455 5.35416 8.00032 5.35416C8.3061 5.35416 8.60881 5.41504 8.89081 5.53326C9.17281 5.65147 9.42845 5.82465 9.64282 6.0427C9.85719 6.26075 10.026 6.5193 10.1394 6.80327C10.2528 7.08724 10.3085 7.39094 10.3033 7.69667C10.3033 8.30756 10.0607 8.89342 9.62869 9.32538C9.19673 9.75734 8.61087 10 7.99999 10C7.38911 10 6.80324 9.75734 6.37129 9.32538C5.93933 8.89342 5.69732 8.30756 5.69732 7.69667Z" fill="#6C6685"/>
</svg>
