<svg width="121" height="40" viewBox="0 0 121 40" fill="none" xmlns="http://www.w3.org/2000/svg">
<g filter="url(#filter0_d_39018_2295)">
<path fill-rule="evenodd" clip-rule="evenodd" d="M27.6359 5.4316L34.4438 12.2316C36.5187 14.3044 36.5187 17.6955 34.4438 19.7683L23.7535 30.4453C22.4775 31.72 20.7018 32.211 19.0406 31.9177C21.5831 31.0056 23.8261 28.8967 25.4778 26.4082C27.5042 23.357 28.6462 19.7271 28.3671 17.0345C28.1444 14.8869 27.3154 14.3202 25.4606 13.0524L25.3416 12.9709L19.9072 8.9196C19.2848 8.49377 18.5325 8.04068 17.7614 7.81273C17.2891 7.67365 16.8103 7.6184 16.3488 7.70268C18.4725 6.15871 23.4362 4.81544 27.6359 5.4316Z" fill="#001AFF"/>
<path fill-rule="evenodd" clip-rule="evenodd" d="M5.30413 12.4585L16.2075 1.55445C18.2831 -0.51815 21.6779 -0.51815 23.7534 1.55445L27.6351 5.432C26.7979 5.27974 25.9382 5.18998 25.0772 5.15858C21.4141 5.02453 17.7175 5.94478 15.564 7.58814C15.3628 7.74144 15.1845 7.8903 15.0266 8.03782C15.0045 8.05248 14.9821 8.06729 14.96 8.08299L14.9679 8.09351C13.8315 9.18335 13.7791 10.1948 13.6795 12.1412C13.6795 12.1412 13.5478 20.7126 13.7464 21.4871C13.8825 22.0168 14.1092 22.5017 14.4742 22.8728C14.3695 22.8354 14.2612 22.795 14.1491 22.7488C10.9822 21.2956 6.35479 16.6268 5.30413 12.4585Z" fill="#052AE0"/>
<path d="M27.6494 17.2969C27.6328 17.1355 27.5643 16.7085 27.5511 16.6451C27.4606 17.1647 27.1887 17.6228 26.8209 18.0239C26.2387 18.6578 25.905 18.9043 25.1873 19.2767L18.6917 22.6506C16.6979 23.6865 15.8068 24.1502 13.8056 23.3348C11.2964 22.3113 6.47791 17.3969 5.34242 12.4504C3.484 14.5366 3.55503 17.761 5.55626 19.7603L16.1624 30.3542L16.2456 30.4373C16.5628 30.7541 16.9113 31.0204 17.2801 31.2401C17.6883 31.483 18.5499 31.8189 19.0786 31.9096C21.7328 31.1121 23.5773 28.832 25.2906 26.251C27.2849 23.2487 27.9226 19.9306 27.6494 17.2969Z" fill="#0058E5"/>
<g opacity="0.6">
<path fill-rule="evenodd" clip-rule="evenodd" d="M20.053 8.72478L23.7492 11.4803C23.826 11.4793 23.9023 11.4744 23.9794 11.4744C28.5 11.4744 32.6559 13.2969 35.7492 16.2308C35.8113 14.8525 35.3225 13.454 34.2714 12.4039L27.5209 5.66099C26.8635 5.56871 26.1648 5.5219 25.4423 5.5219C22.1914 5.5219 19.0418 6.43075 17.2109 7.44653C17.4114 7.47246 17.6186 7.51689 17.8307 7.57925C18.697 7.83579 19.5093 8.35257 20.053 8.72478Z" fill="white"/>
</g>
<g opacity="0.6">
<path fill-rule="evenodd" clip-rule="evenodd" d="M13.4014 15.1973C13.4128 13.7065 13.4312 12.4551 13.4363 12.1286C13.5326 10.2465 13.5875 9.17253 14.6462 8.07069L14.615 8.02921L14.8191 7.88465C14.8378 7.87132 14.8566 7.85858 14.8753 7.84629C15.0352 7.69802 15.2124 7.5502 15.4164 7.39483C17.4311 5.85738 20.8625 4.90247 24.3718 4.90247C24.6099 4.90247 24.8481 4.90676 25.0862 4.91535C25.7117 4.93816 26.3298 4.99134 26.9324 5.07369L23.5814 1.7264C22.6237 0.770007 21.3448 0.243303 19.9808 0.243303C18.6166 0.243303 17.3379 0.770007 16.38 1.7264L5.57533 12.532C6.17622 14.7568 7.82941 17.1814 9.7384 19.1386C10.7487 17.6448 11.9888 16.3155 13.4014 15.1973Z" fill="#001AFF"/>
</g>
<g opacity="0.6">
<path d="M9.22516 19.9477C7.50391 17.9983 5.92072 15.511 5.22507 12.981C3.75147 14.9813 3.93729 17.7985 5.72838 19.5881L8.16293 22.0197C8.46975 21.3033 8.82699 20.6123 9.22516 19.9477Z" fill="url(#paint0_linear_39018_2295)"/>
</g>
<path d="M49.6891 19.1L54.4891 7.7H55.5091L49.3491 22.12H48.7891L42.6091 7.7H43.6891L48.4891 19.06C48.8224 19.8733 49.0291 20.4333 49.1091 20.74C49.2157 20.3133 49.4091 19.7667 49.6891 19.1ZM58.1242 22V9.02H59.0442V22H58.1242ZM67.9069 21.32C69.6135 21.32 70.9802 20.86 72.0069 19.94C73.0469 19.02 73.5669 17.6333 73.5669 15.78C73.5669 13.9267 72.9802 12.4533 71.8069 11.36C70.6469 10.2667 69.2135 9.72 67.5069 9.72C66.2935 9.72 65.3602 9.74667 64.7069 9.8V21.18C65.5069 21.2733 66.5735 21.32 67.9069 21.32ZM67.5069 8.9C69.5069 8.9 71.1735 9.52 72.5069 10.76C73.8535 11.9867 74.5269 13.66 74.5269 15.78C74.5269 17.9 73.9069 19.4933 72.6669 20.56C71.4402 21.6267 69.8535 22.16 67.9069 22.16C66.5602 22.16 65.1735 22.0933 63.7469 21.96V9.02C64.8135 8.94 66.0669 8.9 67.5069 8.9ZM84.172 22.2C82.3187 22.2 80.7654 21.5533 79.512 20.26C78.2587 18.9667 77.632 17.3867 77.632 15.52C77.632 13.64 78.2587 12.0533 79.512 10.76C80.7654 9.46667 82.3187 8.82 84.172 8.82C86.0254 8.82 87.5787 9.46667 88.832 10.76C90.0854 12.0533 90.712 13.64 90.712 15.52C90.712 17.3867 90.0854 18.9667 88.832 20.26C87.5787 21.5533 86.0254 22.2 84.172 22.2ZM84.172 9.64C82.572 9.64 81.2387 10.2067 80.172 11.34C79.1187 12.4733 78.592 13.8667 78.592 15.52C78.592 17.16 79.1187 18.5467 80.172 19.68C81.2387 20.8 82.572 21.36 84.172 21.36C85.7854 21.36 87.1187 20.8 88.172 19.68C89.2254 18.5467 89.752 17.16 89.752 15.52C89.752 13.8667 89.2254 12.4733 88.172 11.34C87.1187 10.2067 85.7854 9.64 84.172 9.64ZM94.6211 22V9.08C95.7678 8.98667 96.7411 8.94 97.5411 8.94C98.7678 8.94 99.7811 9.26 100.581 9.9C101.381 10.5267 101.781 11.4267 101.781 12.6C101.781 13.3867 101.554 14.1133 101.101 14.78C100.648 15.4467 100.134 15.9867 99.5611 16.4C101.148 18.5067 102.128 19.7667 102.501 20.18C103.261 20.9667 104.088 21.4133 104.981 21.52L104.961 22.14C104.214 22.1267 103.608 22.02 103.141 21.82C102.674 21.6067 102.208 21.2533 101.741 20.76C101.288 20.2667 100.281 18.94 98.7211 16.78C97.6411 16.78 96.5811 16.7467 95.5411 16.68V22H94.6211ZM98.2211 16.02C98.7411 16.02 99.3011 15.6733 99.9011 14.98C100.501 14.2867 100.801 13.48 100.801 12.56C100.801 11.64 100.488 10.94 99.8611 10.46C99.2344 9.98 98.4211 9.74 97.4211 9.74C96.8878 9.74 96.2611 9.76667 95.5411 9.82V15.92C96.5011 15.9867 97.3944 16.02 98.2211 16.02ZM107.817 17.5L105.957 22H105.017L110.457 8.94H110.997L116.477 22H115.457L113.577 17.5H107.817ZM110.677 10.42C110.477 11.02 110.297 11.52 110.137 11.92L108.137 16.72H113.257L111.277 11.94C110.971 11.1933 110.771 10.6867 110.677 10.42Z" fill="black"/>
</g>
<defs>
<filter id="filter0_d_39018_2295" x="0" y="0" width="121" height="40" filterUnits="userSpaceOnUse" color-interpolation-filters="sRGB">
<feFlood flood-opacity="0" result="BackgroundImageFix"/>
<feColorMatrix in="SourceAlpha" type="matrix" values="0 0 0 0 0 0 0 0 0 0 0 0 0 0 0 0 0 0 127 0" result="hardAlpha"/>
<feOffset dy="4"/>
<feGaussianBlur stdDeviation="2"/>
<feComposite in2="hardAlpha" operator="out"/>
<feColorMatrix type="matrix" values="0 0 0 0 0 0 0 0 0 0 0 0 0 0 0 0 0 0 0.25 0"/>
<feBlend mode="normal" in2="BackgroundImageFix" result="effect1_dropShadow_39018_2295"/>
<feBlend mode="normal" in="SourceGraphic" in2="effect1_dropShadow_39018_2295" result="shape"/>
</filter>
<linearGradient id="paint0_linear_39018_2295" x1="25.846" y1="24.2954" x2="8.80005" y2="18.2331" gradientUnits="userSpaceOnUse">
<stop stop-color="#ED4C90"/>
<stop offset="0.2535" stop-color="#7B3251"/>
<stop offset="0.283654" stop-color="#681F3E"/>
<stop offset="0.4375" stop-color="#B74073"/>
<stop offset="0.490385" stop-color="#ED4C90"/>
<stop offset="0.788462" stop-color="#922956"/>
</linearGradient>
</defs>
</svg>
